<svg width="15" height="19" viewBox="0 0 15 19" fill="none" xmlns="http://www.w3.org/2000/svg">
<path d="M7.49966 4.73175C6.95379 4.73175 6.42017 4.87614 5.9663 5.14668C5.51242 5.41721 5.15867 5.80173 4.94977 6.25162C4.74087 6.7015 4.68622 7.19654 4.79271 7.67413C4.8992 8.15172 5.16207 8.59042 5.54806 8.93474C5.93405 9.27907 6.42583 9.51356 6.96121 9.60856C7.4966 9.70356 8.05154 9.6548 8.55586 9.46845C9.06018 9.2821 9.49123 8.96654 9.7945 8.56165C10.0978 8.15677 10.2596 7.68076 10.2596 7.19381C10.2588 6.54106 9.96776 5.91525 9.45034 5.45369C8.93292 4.99212 8.23139 4.73249 7.49966 4.73175ZM7.49966 8.42484C7.22672 8.42484 6.95992 8.35264 6.73298 8.21737C6.50604 8.0821 6.32916 7.88984 6.22471 7.6649C6.12027 7.43996 6.09294 7.19244 6.14618 6.95364C6.19943 6.71485 6.33086 6.4955 6.52386 6.32334C6.71685 6.15117 6.96274 6.03393 7.23043 5.98643C7.49813 5.93893 7.7756 5.96331 8.02776 6.05648C8.27992 6.14966 8.49544 6.30744 8.64708 6.50988C8.79871 6.71232 8.87965 6.95033 8.87965 7.19381C8.87923 7.52018 8.7337 7.83308 8.47499 8.06386C8.21629 8.29464 7.86553 8.42446 7.49966 8.42484Z" fill="white"/>
<path d="M12.8032 2.45907C11.4919 1.28961 9.74148 0.594904 7.88975 0.509029C6.03802 0.423155 4.21627 0.952202 2.77609 1.99406C1.33591 3.03592 0.379411 4.51674 0.0911869 6.15071C-0.197037 7.78469 0.20345 9.45598 1.21535 10.842L6.42943 17.9825C6.54546 18.1414 6.70412 18.2719 6.891 18.3623C7.07789 18.4527 7.28711 18.5 7.49968 18.5C7.71226 18.5 7.92147 18.4527 8.10836 18.3623C8.29524 18.2719 8.4539 18.1414 8.56993 17.9825L13.7842 10.842C14.7231 9.55627 15.1381 8.02167 14.9595 6.49544C14.7809 4.96922 14.0196 3.54414 12.8032 2.45907ZM12.6279 10.1701L7.4997 17.1927L2.37144 10.1701C0.801701 8.02044 1.13838 5.14368 3.17196 3.32953C3.74029 2.82254 4.41499 2.42037 5.15754 2.14599C5.9001 1.87161 6.69596 1.73039 7.4997 1.73039C8.30344 1.73039 9.09931 1.87161 9.84186 2.14599C10.5844 2.42037 11.2591 2.82254 11.8274 3.32953C13.861 5.14368 14.1977 8.02044 12.6279 10.1701Z" fill="white"/>
</svg>
